<svg xmlns="http://www.w3.org/2000/svg" width="24.149" height="18.4" viewBox="0 0 24.149 18.4">
  <path id="Discord_Icon" data-name="Discord Icon" d="M20.477,1.692a20.234,20.234,0,0,1,3.571,13.74.078.078,0,0,1-.032.056,19.961,19.961,0,0,1-6.039,3.047.077.077,0,0,1-.085-.029,16.11,16.11,0,0,1-1.233-2,.077.077,0,0,1,.041-.107,12.339,12.339,0,0,0,1.885-.9.077.077,0,0,0,.007-.128c-.128-.095-.254-.194-.375-.294a.074.074,0,0,0-.079-.01A14.287,14.287,0,0,1,6,15.065a.075.075,0,0,0-.078.011c-.121.1-.248.2-.374.293a.077.077,0,0,0,.008.128,13.167,13.167,0,0,0,1.884.9.076.076,0,0,1,.042.106,14.337,14.337,0,0,1-1.233,2.006.079.079,0,0,1-.085.028,20.027,20.027,0,0,1-6.03-3.047A.082.082,0,0,1,.1,15.431,20.368,20.368,0,0,1,3.67,1.691.071.071,0,0,1,3.7,1.663,19.869,19.869,0,0,1,8.618.139.078.078,0,0,1,8.7.176a12.775,12.775,0,0,1,.622,1.257,18.4,18.4,0,0,1,5.521,0A13.914,13.914,0,0,1,15.451.176.075.075,0,0,1,15.53.139a19.916,19.916,0,0,1,4.915,1.524.061.061,0,0,1,.031.029ZM10.243,10.255a2.3,2.3,0,0,0-2.17-2.433A2.308,2.308,0,0,0,5.9,10.255a2.321,2.321,0,0,0,2.17,2.433A2.308,2.308,0,0,0,10.243,10.255Zm8.024,0A2.3,2.3,0,0,0,16.1,7.822a2.308,2.308,0,0,0-2.17,2.433,2.321,2.321,0,0,0,2.17,2.433A2.3,2.3,0,0,0,18.267,10.255Z" transform="translate(-0.003 -0.138)" fill="#d8d8da" opacity="0.32"/>
</svg>
