<svg xmlns="http://www.w3.org/2000/svg" width="23.09" height="19.125" viewBox="0 0 23.09 19.125">
  <g id="Group_31" data-name="Group 31" transform="translate(0 0)" opacity="0.32">
    <g id="Group_28" data-name="Group 28" transform="translate(0 0)">
      <path id="Path_6" data-name="Path 6" d="M53.653,100.123c2.357-1.3,5-2.391,7.458-3.485,4.242-1.785,8.485-3.552,12.794-5.185.842-.286,2.34-.556,2.492.69-.084,1.751-.4,3.5-.64,5.236-.572,3.838-1.246,7.66-1.9,11.481a1.8,1.8,0,0,1-2.845,1.111c-2.458-1.65-4.916-3.3-7.34-4.983-.791-.808-.05-1.97.657-2.542,2.02-1.987,4.158-3.687,6.077-5.774.522-1.246-1.01-.2-1.515.118-2.761,1.9-5.454,3.923-8.384,5.606-1.481.825-3.232.118-4.714-.337-1.33-.539-3.283-1.094-2.138-1.936Z" transform="translate(-53.307 -91.212)" fill="#d8d8da"/>
    </g>
  </g>
</svg>
