<?xml version="1.0" encoding="UTF-8" standalone="no"?>
<!-- Created with Inkscape (http://www.inkscape.org/) -->

<svg
   version="1.1"
   id="svg9"
   width="3450"
   height="2051"
   viewBox="0 0 3450 2051"
   sodipodi:docname="image (9)@2x.svg"
   inkscape:version="1.2.2 (732a01da63, 2022-12-09)"
   xmlns:inkscape="http://www.inkscape.org/namespaces/inkscape"
   xmlns:sodipodi="http://sodipodi.sourceforge.net/DTD/sodipodi-0.dtd"
   xmlns="http://www.w3.org/2000/svg"
   xmlns:svg="http://www.w3.org/2000/svg">
  <defs
     id="defs13" />
  <sodipodi:namedview
     id="namedview11"
     pagecolor="#505050"
     bordercolor="#eeeeee"
     borderopacity="1"
     inkscape:showpageshadow="0"
     inkscape:pageopacity="0"
     inkscape:pagecheckerboard="0"
     inkscape:deskcolor="#505050"
     showgrid="false"
     inkscape:zoom="0.57240371"
     inkscape:cx="1529.5149"
     inkscape:cy="1025.5"
     inkscape:window-width="3440"
     inkscape:window-height="1377"
     inkscape:window-x="-8"
     inkscape:window-y="-8"
     inkscape:window-maximized="1"
     inkscape:current-layer="g15" />
  <g
     inkscape:groupmode="layer"
     inkscape:label="Image"
     id="g15">
    <path
       style="fill:#000000;stroke-width:1.74702"
       d="m 980.167,2046.3957 c -21.66526,-1.7772 -48.55055,-7.274 -61.51905,-12.5776 -33.92714,-13.8749 -64.87647,-39.3343 -86.1771,-70.8907 -17.05207,-25.2621 -23.88957,-44.5315 -29.1352,-82.1085 -3.24759,-23.264 -3.67456,-38.5784 -4.89936,-175.7286 -1.29145,-144.6111 -1.47845,-150.7484 -4.98851,-163.707 -4.51627,-16.6736 -8.17267,-23.8319 -19.00141,-37.2002 -20.48984,-25.2951 -67.94783,-55.7415 -120.18785,-77.1059 -5.76516,-2.3577 -12.05443,-5.0244 -13.97615,-5.9258 -6.34151,-2.9748 -41.66111,-15.2947 -56.77811,-19.8049 -29.33963,-8.7537 -41.1512,-9.9034 -118.46461,-11.5315 -69.90526,-1.4721 -73.43106,-1.7074 -87.6836,-5.8505 -21.70411,-6.3094 -28.78091,-9.1405 -44.44498,-17.7801 -17.0288,-9.3923 -24.81308,-15.4664 -167.07199,-130.3679 -15.92443,-12.862 -39.11611,-31.5787 -51.53705,-41.5926 C 51.356207,1143.4761 38.638368,1129.9402 21.432775,1095.3807 13.541092,1079.5294 8.1114533,1063.5296 5.4254528,1048.2112 0.69432936,1021.2294 0.01635367,968.53316 0.01981434,628.05324 0.02390725,225.36159 1.0928406,176.66143 10.718297,140.63501 23.299073,93.547322 55.354437,52.898239 100.45358,26.842608 122.67162,14.006327 145.76448,7.6664404 183.59081,4.0182084 c 34.3278,-3.31080842 758.13386,-3.31491054 777.2695,-0.00441 42.31979,7.3214166 73.04829,23.8457436 113.09659,60.8181056 55.5449,51.278726 67.0684,61.952446 77.3284,71.626506 23.8345,22.47311 53.6491,48.33173 62.5042,54.21067 27.485,18.24758 54.7779,27.97222 85.9924,30.63974 13.2096,1.12886 104.6173,2.17149 231.3509,2.63889 229.0139,0.8446 233.1108,0.70173 264.665,-9.22994 34.7971,-10.95239 56.3018,-25.55593 104.0851,-70.6825 6.726,-6.35206 18.8956,-17.77381 27.0433,-25.38167 8.1479,-7.60786 20.7265,-19.373947 27.9523,-26.146852 40.3427,-37.813326 50.956,-47.131531 65.8221,-57.7901 13.8304,-9.916047 35.734,-20.109239 55.6312,-25.8888556 12.8783,-3.7408168 21.887,-4.8939353 49.79,-6.3731144 49.039,-2.59962945 1119.2646,-1.017397 1144.2973,1.691741 43.065,4.6606678 69.9759,14.467315 98.7065,35.969827 24.0684,18.013243 42.5102,39.49363 56.417,65.712564 8.9888,16.94652 13.5284,32.3717 18.3373,62.30592 l 3.8616,24.03733 V 1023.753 c 0,673.9894 -0.4308,834.395 -2.2734,846.4306 -1.2505,8.1673 -3.0667,19.9596 -4.0363,26.2052 -3.5706,23.0011 -14.0483,49.405 -26.5717,66.96 -7.548,10.5804 -9.2277,12.5795 -21.2762,25.3205 -34.8946,36.9 -71.1248,53.1339 -129.2794,57.927 -26.2589,2.1642 -2257.6992,1.9684 -2284.1375,-0.2006 z"
       id="path192" />
  </g>
</svg>
