<svg xmlns="http://www.w3.org/2000/svg" width="23.847" height="23.847" viewBox="0 0 23.847 23.847">
  <g id="noun-collection-2145335" transform="translate(-5 -5)" opacity="0.32">
    <path id="Path_12" data-name="Path 12" d="M21.277,7.461V7.215A2.214,2.214,0,0,0,19.064,5H7.212A2.214,2.214,0,0,0,5,7.215V19.066a2.213,2.213,0,0,0,2.212,2.212h.246V11A3.542,3.542,0,0,1,11,7.461Z" fill="#fff"/>
    <path id="Path_13" data-name="Path 13" d="M25.279,21.748H35.56V21.5a2.213,2.213,0,0,0-2.212-2.212H21.5A2.213,2.213,0,0,0,19.28,21.5V33.353A2.213,2.213,0,0,0,21.5,35.565h.246V25.285A3.542,3.542,0,0,1,25.279,21.748Z" transform="translate(-10.496 -10.503)" fill="#fff"/>
    <path id="Path_14" data-name="Path 14" d="M3.7,0h8.873a3.7,3.7,0,0,1,3.7,3.7v8.873a3.7,3.7,0,0,1-3.7,3.7H3.7a3.7,3.7,0,0,1-3.7-3.7V3.7A3.7,3.7,0,0,1,3.7,0Z" transform="translate(12.569 12.57)" fill="#fff"/>
  </g>
</svg>
