<svg xmlns="http://www.w3.org/2000/svg" width="305" height="275" viewBox="0 0 305 275">
  <path id="Path_1" data-name="Path 1" d="M137.5,275h59.624c25.928,0,38.892,0,49.5-2.977a80,80,0,0,0,55.4-55.4C305,206.016,305,193.052,305,167.124V108.305a49.058,49.058,0,0,0-49.058-49.057H236.508a29.624,29.624,0,0,1-29.624-29.624A29.624,29.624,0,0,0,177.26,0H103.442C81.65,0,70.754,0,61.751,2.109A80,80,0,0,0,2.109,61.751C0,70.753,0,81.65,0,103.442V137.5c0,53.8,0,80.7,12.412,100.3A79.992,79.992,0,0,0,37.2,262.588C56.8,275,83.7,275,137.5,275Z" transform="translate(0)" fill="#1b1b25"/>
</svg>
