<svg xmlns="http://www.w3.org/2000/svg" width="69.286" height="37.926" viewBox="0 0 69.286 37.926">
  <path id="Path_35" data-name="Path 35" d="M3.822-36.407c-.882,1.323-1.715,4.361-1.715,7.693,0,2.156.539,5.047,2.646,5.047,3.675,0,6.076-10.437,12.936-10.437,2.058,0,4.116,1.519,4.116,4.949l.1,22.05c0,5.341-.343,6.615-2.891,6.615-1.764,0-4.018-8.624-5.88-8.771H11.956V0h7.007C24.4.2,29.351-1.176,29.351-6.909L29.3-29.694c0-2.3-1.176-7.105-6.615-7.105-6.86-.049-10.731,6.174-15.533,6.174-2.3,0-3.724-3.283-3.038-5.684Zm3.136,22.05C5.39-10.927,3.038-7.84.294-8.036L.245.049C9.016.049,12.1-13.671,20.139-29.2H13.671ZM30.723-25.725c1.862-2.156,2.156-2.793,6.566-2.842l5.194-.049-6.272,5.439C36.554-19.257,37.73-.539,31.85-.539l-4.263.1-.1.441h8.379c9.8-1.225,5.684-20.433,5.586-27.146l1.666-1.47,15.68-.1c2.548-.147,6.86,2.646,3.871,4.949-1.96,1.519-2.352.98-7.84.98-1.225.049-1.764,0-3.038,0-2.842,2.45-8.134,8.526-8.134,9.7,0,4.606,7.693,14.21,11.956,14.21,1.127,0,7.105-3.479,9.506-5.537A22.464,22.464,0,0,0,69.531-10l-.343-.2A15.661,15.661,0,0,1,64.68-4.949c-5.488,3.724-16.219-6.027-17-12.4l4.018-.049c1.519,0,7.2-2.793,12.985-6.909,2.254-1.911,4.361-3.675,4.361-6.321A4.67,4.67,0,0,0,66.2-34.3l-28.077.049-7.791,8.232Z" transform="translate(-0.245 36.799)" fill="#8e8b9c"/>
</svg>
