<svg xmlns="http://www.w3.org/2000/svg" width="21.775" height="24.592" viewBox="0 0 21.775 24.592">
  <path id="Path_9" data-name="Path 9" d="M33.867,31.837a6.218,6.218,0,1,0-6.239-6.2A6.244,6.244,0,0,0,33.867,31.837Zm0-11.229a5.031,5.031,0,1,1-5.031,5.031A5.033,5.033,0,0,1,33.867,20.607Zm10.706,22.66a11.232,11.232,0,0,0-10.706-8.935,11.189,11.189,0,0,0-10.706,8.935L23,43.992H44.775Zm-20.044-.443a9.92,9.92,0,0,1,9.338-7.245A9.92,9.92,0,0,1,43.2,42.825Z" transform="translate(-23 -19.4)" fill="#fff"/>
</svg>
