<svg class="svg">
  <clipPath id="right_clip" clipPathUnits="objectBoundingBox"><path d="m0.284,1 c-0.006,-0.001,-0.014,-0.004,-0.018,-0.006 c-0.01,-0.007,-0.019,-0.019,-0.025,-0.035 c-0.005,-0.012,-0.007,-0.022,-0.008,-0.04 c-0.001,-0.011,-0.001,-0.019,-0.001,-0.086 c0,-0.071,0,-0.074,-0.001,-0.08 c-0.001,-0.008,-0.002,-0.012,-0.006,-0.018 c-0.006,-0.012,-0.02,-0.027,-0.035,-0.038 c-0.002,-0.001,-0.003,-0.002,-0.004,-0.003 c-0.002,-0.001,-0.012,-0.007,-0.016,-0.01 c-0.009,-0.004,-0.012,-0.005,-0.034,-0.006 c-0.02,-0.001,-0.021,-0.001,-0.025,-0.003 c-0.006,-0.003,-0.008,-0.004,-0.013,-0.009 c-0.005,-0.005,-0.007,-0.008,-0.048,-0.064 c-0.005,-0.006,-0.011,-0.015,-0.015,-0.02 C0.015,0.559,0.011,0.552,0.006,0.535 C0.004,0.527,0.002,0.52,0.002,0.512 C0,0.499,0,0.473,0,0.307 C0,0.11,0,0.086,0.003,0.069 C0.007,0.046,0.016,0.026,0.029,0.013 C0.036,0.007,0.042,0.004,0.053,0.002 c0.01,-0.002,0.22,-0.002,0.225,0 c0.012,0.004,0.021,0.012,0.033,0.03 c0.016,0.025,0.019,0.03,0.022,0.035 c0.007,0.011,0.016,0.024,0.018,0.026 c0.008,0.009,0.016,0.014,0.025,0.015 c0.004,0.001,0.03,0.001,0.067,0.001 c0.066,0,0.068,0,0.077,-0.005 c0.01,-0.005,0.016,-0.012,0.03,-0.035 c0.002,-0.003,0.005,-0.009,0.008,-0.012 c0.002,-0.004,0.006,-0.009,0.008,-0.013 c0.012,-0.018,0.015,-0.023,0.019,-0.028 c0.004,-0.005,0.01,-0.01,0.016,-0.013 c0.004,-0.002,0.006,-0.002,0.014,-0.003 c0.014,-0.001,0.325,0,0.332,0.001 c0.012,0.002,0.02,0.007,0.029,0.018 c0.007,0.009,0.012,0.019,0.016,0.032 c0.003,0.008,0.004,0.016,0.005,0.03 l0.001,0.012 V0.5 c0,0.329,0,0.408,-0.001,0.413 c0,0.004,-0.001,0.01,-0.001,0.013 c-0.001,0.011,-0.004,0.024,-0.008,0.033 c-0.002,0.005,-0.003,0.006,-0.006,0.012 c-0.01,0.018,-0.021,0.026,-0.037,0.028 c-0.008,0.001,-0.655,0.001,-0.663,0"></path></clipPath>
</svg>